<?xml version="1.0" encoding="UTF-8"?>
<svg width="128" height="128" viewBox="0 0 128 128" xmlns="http://www.w3.org/2000/svg">
  <!-- rounded background -->
  <rect x="4" y="4" width="120" height="120" rx="26" fill="#1e3a5f"/>
  <!-- sea -->
  <path d="M4 92 Q 24 84 44 92 T 84 92 T 124 92 L 124 98 Q 124 124 98 124 L 30 124 Q 4 124 4 98 Z"
        fill="#2d6da3"/>
  <!-- hull -->
  <path d="M28 88 L 100 88 L 88 104 L 40 104 Z" fill="#e8b64c"/>
  <!-- mast -->
  <rect x="62" y="28" width="4" height="60" fill="#c9973a"/>
  <!-- sail: two panels suggesting source and target document -->
  <path d="M58 34 Q 38 54 56 82 L 58 82 Z" fill="#f5f0e6"/>
  <path d="M70 34 Q 90 54 72 82 L 70 82 Z" fill="#f5f0e6"/>
  <!-- text lines on the sails -->
  <g stroke="#9aa7b5" stroke-width="2.5" stroke-linecap="round">
    <line x1="49" y1="52" x2="56" y2="52"/>
    <line x1="47" y1="60" x2="56" y2="60"/>
    <line x1="48" y1="68" x2="56" y2="68"/>
    <line x1="72" y1="52" x2="79" y2="52"/>
    <line x1="72" y1="60" x2="81" y2="60"/>
    <line x1="72" y1="68" x2="80" y2="68"/>
  </g>
</svg>
